<svg width="36" height="37" viewBox="0 0 36 37" fill="none" xmlns="http://www.w3.org/2000/svg">
<path d="M0 18.5576C0 28.4987 8.05888 36.5576 18 36.5576C27.9411 36.5576 36 28.4987 36 18.5576C36 8.61649 27.9411 0.557617 18 0.557617C8.05888 0.557617 0 8.61649 0 18.5576Z" fill="#FF6700"/>
<path d="M27 18.6104C27 13.6604 22.95 9.61035 18 9.61035C13.05 9.61035 9 13.6604 9 18.6104C9 23.1104 12.2625 26.8229 16.5375 27.4979V21.1979H14.2875V18.6104H16.5375V16.5854C16.5375 14.3354 17.8875 13.0979 19.9125 13.0979C20.925 13.0979 21.9375 13.3229 21.9375 13.3229V15.5729H20.8125C19.6875 15.5729 19.35 16.2479 19.35 16.9229V18.6104H21.825L21.375 21.1979H19.2375V27.6104C23.7375 26.9354 27 23.1104 27 18.6104Z" fill="#FAFAFA"/>
</svg>
