<svg width="36" height="37" viewBox="0 0 36 37" fill="none" xmlns="http://www.w3.org/2000/svg">
<path d="M0 18.9766C0 28.9177 8.05888 36.9766 18 36.9766C27.9411 36.9766 36 28.9177 36 18.9766C36 9.03544 27.9411 0.976562 18 0.976562C8.05888 0.976562 0 9.03544 0 18.9766Z" fill="#4B4B4B"/>
<path d="M27 19.0293C27 14.0793 22.95 10.0293 18 10.0293C13.05 10.0293 9 14.0793 9 19.0293C9 23.5293 12.2625 27.2418 16.5375 27.9168V21.6168H14.2875V19.0293H16.5375V17.0043C16.5375 14.7543 17.8875 13.5168 19.9125 13.5168C20.925 13.5168 21.9375 13.7418 21.9375 13.7418V15.9918H20.8125C19.6875 15.9918 19.35 16.6668 19.35 17.3418V19.0293H21.825L21.375 21.6168H19.2375V28.0293C23.7375 27.3543 27 23.5293 27 19.0293Z" fill="white"/>
</svg>
