<svg width="36" height="37" viewBox="0 0 36 37" fill="none" xmlns="http://www.w3.org/2000/svg">
<path d="M0 18.5576C0 28.4987 8.05888 36.5576 18 36.5576C27.9411 36.5576 36 28.4987 36 18.5576C36 8.61649 27.9411 0.557617 18 0.557617C8.05888 0.557617 0 8.61649 0 18.5576Z" fill="#FF6700"/>
<path d="M17.9996 10.9082C20.4746 10.9082 20.8121 10.9082 21.8246 10.9082C22.7246 10.9082 23.1746 11.1332 23.5121 11.2457C23.9621 11.4707 24.2996 11.5832 24.6371 11.9207C24.9746 12.2582 25.1996 12.5957 25.3121 13.0457C25.4246 13.3832 25.5371 13.8332 25.6496 14.7332C25.6496 15.7457 25.6496 15.9707 25.6496 18.5582C25.6496 21.1457 25.6496 21.3707 25.6496 22.3832C25.6496 23.2832 25.4246 23.7332 25.3121 24.0707C25.0871 24.5207 24.9746 24.8582 24.6371 25.1957C24.2996 25.5332 23.9621 25.7582 23.5121 25.8707C23.1746 25.9832 22.7246 26.0957 21.8246 26.2082C20.8121 26.2082 20.5871 26.2082 17.9996 26.2082C15.4121 26.2082 15.1871 26.2082 14.1746 26.2082C13.2746 26.2082 12.8246 25.9832 12.4871 25.8707C12.0371 25.6457 11.6996 25.5332 11.3621 25.1957C11.0246 24.8582 10.7996 24.5207 10.6871 24.0707C10.5746 23.7332 10.4621 23.2832 10.3496 22.3832C10.3496 21.3707 10.3496 21.1457 10.3496 18.5582C10.3496 15.9707 10.3496 15.7457 10.3496 14.7332C10.3496 13.8332 10.5746 13.3832 10.6871 13.0457C10.9121 12.5957 11.0246 12.2582 11.3621 11.9207C11.6996 11.5832 12.0371 11.3582 12.4871 11.2457C12.8246 11.1332 13.2746 11.0207 14.1746 10.9082C15.1871 10.9082 15.5246 10.9082 17.9996 10.9082ZM17.9996 9.2207C15.4121 9.2207 15.1871 9.2207 14.1746 9.2207C13.1621 9.2207 12.4871 9.4457 11.9246 9.6707C11.3621 9.8957 10.7996 10.2332 10.2371 10.7957C9.67461 11.3582 9.44961 11.8082 9.11211 12.4832C8.88711 13.0457 8.77461 13.7207 8.66211 14.7332C8.66211 15.7457 8.66211 16.0832 8.66211 18.5582C8.66211 21.1457 8.66211 21.3707 8.66211 22.3832C8.66211 23.3957 8.88711 24.0707 9.11211 24.6332C9.33711 25.1957 9.67461 25.7582 10.2371 26.3207C10.7996 26.8832 11.2496 27.1082 11.9246 27.4457C12.4871 27.6707 13.1621 27.7832 14.1746 27.8957C15.1871 27.8957 15.5246 27.8957 17.9996 27.8957C20.4746 27.8957 20.8121 27.8957 21.8246 27.8957C22.8371 27.8957 23.5121 27.6707 24.0746 27.4457C24.6371 27.2207 25.1996 26.8832 25.7621 26.3207C26.3246 25.7582 26.5496 25.3082 26.8871 24.6332C27.1121 24.0707 27.2246 23.3957 27.3371 22.3832C27.3371 21.3707 27.3371 21.0332 27.3371 18.5582C27.3371 16.0832 27.3371 15.7457 27.3371 14.7332C27.3371 13.7207 27.1121 13.0457 26.8871 12.4832C26.6621 11.9207 26.3246 11.3582 25.7621 10.7957C25.1996 10.2332 24.7496 10.0082 24.0746 9.6707C23.5121 9.4457 22.8371 9.3332 21.8246 9.2207C20.8121 9.2207 20.5871 9.2207 17.9996 9.2207Z" fill="#FAFAFA"/>
<path d="M17.9996 13.7207C15.2996 13.7207 13.1621 15.8582 13.1621 18.5582C13.1621 21.2582 15.2996 23.3957 17.9996 23.3957C20.6996 23.3957 22.8371 21.2582 22.8371 18.5582C22.8371 15.8582 20.6996 13.7207 17.9996 13.7207ZM17.9996 21.7082C16.3121 21.7082 14.8496 20.3582 14.8496 18.5582C14.8496 16.8707 16.1996 15.4082 17.9996 15.4082C19.6871 15.4082 21.1496 16.7582 21.1496 18.5582C21.1496 20.2457 19.6871 21.7082 17.9996 21.7082Z" fill="#FAFAFA"/>
<path d="M22.9496 14.7332C23.5709 14.7332 24.0746 14.2295 24.0746 13.6082C24.0746 12.9869 23.5709 12.4832 22.9496 12.4832C22.3283 12.4832 21.8246 12.9869 21.8246 13.6082C21.8246 14.2295 22.3283 14.7332 22.9496 14.7332Z" fill="#FAFAFA"/>
</svg>
