<svg width="36" height="37" viewBox="0 0 36 37" fill="none" xmlns="http://www.w3.org/2000/svg">
<path d="M0 18.9766C0 28.9177 8.05888 36.9766 18 36.9766C27.9411 36.9766 36 28.9177 36 18.9766C36 9.03544 27.9411 0.976562 18 0.976562C8.05888 0.976562 0 9.03544 0 18.9766Z" fill="#4B4B4B"/>
<path d="M17.9999 11.3271C20.4749 11.3271 20.8124 11.3271 21.8249 11.3271C22.7249 11.3271 23.1749 11.5521 23.5124 11.6646C23.9624 11.8896 24.2999 12.0021 24.6374 12.3396C24.9749 12.6771 25.1999 13.0146 25.3124 13.4646C25.4249 13.8021 25.5374 14.2521 25.6499 15.1521C25.6499 16.1646 25.6499 16.3896 25.6499 18.9771C25.6499 21.5646 25.6499 21.7896 25.6499 22.8021C25.6499 23.7021 25.4249 24.1521 25.3124 24.4896C25.0874 24.9396 24.9749 25.2771 24.6374 25.6146C24.2999 25.9521 23.9624 26.1771 23.5124 26.2896C23.1749 26.4021 22.7249 26.5146 21.8249 26.6271C20.8124 26.6271 20.5874 26.6271 17.9999 26.6271C15.4124 26.6271 15.1874 26.6271 14.1749 26.6271C13.2749 26.6271 12.8249 26.4021 12.4874 26.2896C12.0374 26.0646 11.6999 25.9521 11.3624 25.6146C11.0249 25.2771 10.7999 24.9396 10.6874 24.4896C10.5749 24.1521 10.4624 23.7021 10.3499 22.8021C10.3499 21.7896 10.3499 21.5646 10.3499 18.9771C10.3499 16.3896 10.3499 16.1646 10.3499 15.1521C10.3499 14.2521 10.5749 13.8021 10.6874 13.4646C10.9124 13.0146 11.0249 12.6771 11.3624 12.3396C11.6999 12.0021 12.0374 11.7771 12.4874 11.6646C12.8249 11.5521 13.2749 11.4396 14.1749 11.3271C15.1874 11.3271 15.5249 11.3271 17.9999 11.3271ZM17.9999 9.63965C15.4124 9.63965 15.1874 9.63965 14.1749 9.63965C13.1624 9.63965 12.4874 9.86465 11.9249 10.0896C11.3624 10.3146 10.7999 10.6521 10.2374 11.2146C9.67485 11.7771 9.44985 12.2271 9.11235 12.9021C8.88735 13.4646 8.77485 14.1396 8.66235 15.1521C8.66235 16.1646 8.66235 16.5021 8.66235 18.9771C8.66235 21.5646 8.66235 21.7896 8.66235 22.8021C8.66235 23.8146 8.88735 24.4896 9.11235 25.0521C9.33735 25.6146 9.67485 26.1771 10.2374 26.7396C10.7999 27.3021 11.2499 27.5271 11.9249 27.8646C12.4874 28.0896 13.1624 28.2021 14.1749 28.3146C15.1874 28.3146 15.5249 28.3146 17.9999 28.3146C20.4749 28.3146 20.8124 28.3146 21.8249 28.3146C22.8374 28.3146 23.5124 28.0896 24.0749 27.8646C24.6374 27.6396 25.1999 27.3021 25.7624 26.7396C26.3249 26.1771 26.5499 25.7271 26.8874 25.0521C27.1124 24.4896 27.2249 23.8146 27.3374 22.8021C27.3374 21.7896 27.3374 21.4521 27.3374 18.9771C27.3374 16.5021 27.3374 16.1646 27.3374 15.1521C27.3374 14.1396 27.1124 13.4646 26.8874 12.9021C26.6624 12.3396 26.3249 11.7771 25.7624 11.2146C25.1999 10.6521 24.7499 10.4271 24.0749 10.0896C23.5124 9.86465 22.8374 9.75215 21.8249 9.63965C20.8124 9.63965 20.5874 9.63965 17.9999 9.63965Z" fill="white"/>
<path d="M17.9999 14.1396C15.2999 14.1396 13.1624 16.2771 13.1624 18.9771C13.1624 21.6771 15.2999 23.8146 17.9999 23.8146C20.6999 23.8146 22.8374 21.6771 22.8374 18.9771C22.8374 16.2771 20.6999 14.1396 17.9999 14.1396ZM17.9999 22.1271C16.3124 22.1271 14.8499 20.7771 14.8499 18.9771C14.8499 17.2896 16.1999 15.8271 17.9999 15.8271C19.6874 15.8271 21.1499 17.1771 21.1499 18.9771C21.1499 20.6646 19.6874 22.1271 17.9999 22.1271Z" fill="white"/>
<path d="M22.9499 15.1521C23.5712 15.1521 24.0749 14.6485 24.0749 14.0271C24.0749 13.4058 23.5712 12.9021 22.9499 12.9021C22.3285 12.9021 21.8249 13.4058 21.8249 14.0271C21.8249 14.6485 22.3285 15.1521 22.9499 15.1521Z" fill="white"/>
</svg>
