<svg width="36" height="37" viewBox="0 0 36 37" fill="none" xmlns="http://www.w3.org/2000/svg">
<path d="M0 18.9766C0 28.9177 8.05888 36.9766 18 36.9766C27.9411 36.9766 36 28.9177 36 18.9766C36 9.03544 27.9411 0.976562 18 0.976562C8.05888 0.976562 0 9.03544 0 18.9766Z" fill="#4B4B4B"/>
<path d="M13.05 27.9766H9.225V15.9391H13.05V27.9766ZM11.1375 14.2516C9.9 14.2516 9 13.3516 9 12.1141C9 10.8766 10.0125 9.97656 11.1375 9.97656C12.375 9.97656 13.275 10.8766 13.275 12.1141C13.275 13.3516 12.375 14.2516 11.1375 14.2516ZM27 27.9766H23.175V21.4516C23.175 19.5391 22.3875 18.9766 21.2625 18.9766C20.1375 18.9766 19.0125 19.8766 19.0125 21.5641V27.9766H15.1875V15.9391H18.7875V17.6266C19.125 16.8391 20.475 15.6016 22.3875 15.6016C24.525 15.6016 26.775 16.8391 26.775 20.5516V27.9766H27Z" fill="white"/>
</svg>
