<svg width="36" height="37" viewBox="0 0 36 37" fill="none" xmlns="http://www.w3.org/2000/svg">
<path d="M0 18.5576C0 28.4987 8.05888 36.5576 18 36.5576C27.9411 36.5576 36 28.4987 36 18.5576C36 8.61649 27.9411 0.557617 18 0.557617C8.05888 0.557617 0 8.61649 0 18.5576Z" fill="#FF6700"/>
<path d="M13.05 27.5576H9.225V15.5201H13.05V27.5576ZM11.1375 13.8326C9.9 13.8326 9 12.9326 9 11.6951C9 10.4576 10.0125 9.55762 11.1375 9.55762C12.375 9.55762 13.275 10.4576 13.275 11.6951C13.275 12.9326 12.375 13.8326 11.1375 13.8326ZM27 27.5576H23.175V21.0326C23.175 19.1201 22.3875 18.5576 21.2625 18.5576C20.1375 18.5576 19.0125 19.4576 19.0125 21.1451V27.5576H15.1875V15.5201H18.7875V17.2076C19.125 16.4201 20.475 15.1826 22.3875 15.1826C24.525 15.1826 26.775 16.4201 26.775 20.1326V27.5576H27Z" fill="#FAFAFA"/>
</svg>
