<svg width="36" height="37" viewBox="0 0 36 37" fill="none" xmlns="http://www.w3.org/2000/svg">
<path d="M0 18.5576C0 28.4987 8.05888 36.5576 18 36.5576C27.9411 36.5576 36 28.4987 36 18.5576C36 8.61649 27.9411 0.557617 18 0.557617C8.05888 0.557617 0 8.61649 0 18.5576Z" fill="#FF6700"/>
<path d="M27 12.9326C26.325 13.2701 25.65 13.3826 24.8625 13.4951C25.65 13.0451 26.2125 12.3701 26.4375 11.4701C25.7625 11.9201 24.975 12.1451 24.075 12.3701C23.4 11.6951 22.3875 11.2451 21.375 11.2451C19.0125 11.2451 17.2125 13.4951 17.775 15.7451C14.7375 15.6326 12.0375 14.1701 10.125 11.9201C9.1125 13.6076 9.675 15.7451 11.25 16.8701C10.6875 16.8701 10.125 16.6451 9.5625 16.4201C9.5625 18.1076 10.8 19.6826 12.4875 20.1326C11.925 20.2451 11.3625 20.3576 10.8 20.2451C11.25 21.7076 12.6 22.8326 14.2875 22.8326C12.9375 23.8451 10.9125 24.4076 9 24.1826C10.6875 25.1951 12.6 25.8701 14.625 25.8701C21.4875 25.8701 25.3125 20.1326 25.0875 14.8451C25.875 14.3951 26.55 13.7201 27 12.9326Z" fill="#FAFAFA"/>
</svg>
