<svg width="36" height="37" viewBox="0 0 36 37" fill="none" xmlns="http://www.w3.org/2000/svg">
<path d="M0 18.9766C0 28.9177 8.05888 36.9766 18 36.9766C27.9411 36.9766 36 28.9177 36 18.9766C36 9.03544 27.9411 0.976562 18 0.976562C8.05888 0.976562 0 9.03544 0 18.9766Z" fill="#4B4B4B"/>
<path d="M27 13.3516C26.325 13.6891 25.65 13.8016 24.8625 13.9141C25.65 13.4641 26.2125 12.7891 26.4375 11.8891C25.7625 12.3391 24.975 12.5641 24.075 12.7891C23.4 12.1141 22.3875 11.6641 21.375 11.6641C19.0125 11.6641 17.2125 13.9141 17.775 16.1641C14.7375 16.0516 12.0375 14.5891 10.125 12.3391C9.1125 14.0266 9.675 16.1641 11.25 17.2891C10.6875 17.2891 10.125 17.0641 9.5625 16.8391C9.5625 18.5266 10.8 20.1016 12.4875 20.5516C11.925 20.6641 11.3625 20.7766 10.8 20.6641C11.25 22.1266 12.6 23.2516 14.2875 23.2516C12.9375 24.2641 10.9125 24.8266 9 24.6016C10.6875 25.6141 12.6 26.2891 14.625 26.2891C21.4875 26.2891 25.3125 20.5516 25.0875 15.2641C25.875 14.8141 26.55 14.1391 27 13.3516Z" fill="white"/>
</svg>
