<svg width="1280" height="207" viewBox="0 0 1280 207" fill="none" xmlns="http://www.w3.org/2000/svg">
<path d="M127.278 203.532H-0.000976562V0.974609H121.534C162.952 0.974609 185.324 18.5095 185.324 50.2536C185.324 75.3466 172.022 93.4861 138.162 95.9047V98.6256C175.65 101.347 193.789 120.091 193.789 147.3C193.789 181.765 172.627 203.532 127.278 203.532ZM45.3478 41.7885V81.3931H116.394C133.022 81.3931 139.976 75.6489 139.976 61.742C139.976 47.835 132.72 41.7885 115.79 41.7885H45.3478ZM45.3478 118.881V162.719H121.836C140.278 162.719 147.836 156.974 147.836 140.649C147.836 124.626 140.278 118.881 121.836 118.881H45.3478Z" fill="#0070EF"/>
<path d="M255.875 203.532H210.526V0.974609H255.875V203.532Z" fill="#0070EF"/>
<path d="M342.193 206.556C299.566 206.556 279.31 180.253 279.31 146.393V52.0676H324.659V131.277C324.659 155.765 334.938 166.044 363.658 166.044C393.286 166.044 403.868 154.556 403.868 128.858V52.0676H449.216V203.532H406.891V157.277H404.472C400.542 182.672 382.1 206.556 342.193 206.556Z" fill="#0070EF"/>
<path d="M552.822 206.556C502.334 206.556 467.869 181.765 467.869 127.951C467.869 79.5792 502.031 49.0443 551.915 49.0443C601.496 49.0443 634.45 75.0443 634.45 122.509C634.45 127.951 633.845 131.881 633.24 137.021H509.892C511.101 160.3 521.985 170.277 551.31 170.277C578.217 170.277 587.589 163.323 587.589 150.323V147.3H632.938V150.626C632.938 183.579 600.892 206.556 552.822 206.556ZM551.008 84.4164C524.101 84.4164 512.613 93.4861 510.496 113.137H590.915C589.706 93.1838 577.613 84.4164 551.008 84.4164Z" fill="#0070EF"/>
<path d="M760.401 203.532H722.913C687.541 203.532 666.076 186.905 666.076 148.812V89.5559V52.0676V0.974609H711.425V52.0676V89.5559V143.672C711.425 158.788 717.169 162.719 733.192 162.719H760.401V203.532Z" fill="#192BC2"/>
<path d="M822.735 203.532H777.386V52.0676H822.735V203.532Z" fill="#192BC2"/>
<path d="M914.193 206.556C867.03 206.556 841.03 175.719 841.03 127.951C841.03 79.5792 866.728 49.0443 911.774 49.0443C947.751 49.0443 966.193 66.8815 971.332 92.2768H974.053V0.974609H1019.4V203.532H977.076V161.509H974.658C968.914 191.439 948.96 206.556 914.193 206.556ZM886.983 127.951C886.983 155.463 900.588 165.137 929.611 165.137C958.332 165.137 974.053 155.16 974.053 128.858V126.44C974.053 100.137 958.634 90.4629 929.611 90.4629C900.588 90.4629 886.983 100.137 886.983 127.951Z" fill="#192BC2"/>
<path d="M1123.82 206.556C1073.33 206.556 1038.86 181.765 1038.86 127.951C1038.86 79.5792 1073.02 49.0443 1122.91 49.0443C1172.49 49.0443 1205.44 75.0443 1205.44 122.509C1205.44 127.951 1204.84 131.881 1204.23 137.021H1080.88C1082.09 160.3 1092.98 170.277 1122.3 170.277C1149.21 170.277 1158.58 163.323 1158.58 150.323V147.3H1203.93V150.626C1203.93 183.579 1171.88 206.556 1123.82 206.556ZM1122 84.4164C1095.09 84.4164 1083.61 93.4861 1081.49 113.137H1161.91C1160.7 93.1838 1148.61 84.4164 1122 84.4164Z" fill="#192BC2"/>
<path d="M1280 203.532H1221.65V150.626H1280V203.532Z" fill="#192BC2"/>
<path d="M638.951 75.8211C745.282 81.033 720.412 9.53699 824.621 22.5811" stroke="#FF6700" stroke-width="41.9896"/>
</svg>
