<svg width="512" height="512" viewBox="0 0 512 512" fill="none" xmlns="http://www.w3.org/2000/svg">
  <!-- Background -->
  <rect width="512" height="512" fill="#e6e9fa" rx="64"/>

  <!-- Wave accent -->
  <path d="M80 256C160 230 200 300 280 280C360 260 400 320 480 300" stroke="#e36414" stroke-width="40" stroke-linecap="round"/>

  <!-- B Letter -->
  <path d="M140 160H100V400H230C270 400 290 380 290 350C290 325 275 310 250 308V304C270 302 285 287 285 262C285 232 265 160 225 160H140ZM140 200H210C230 200 240 210 240 230C240 250 230 260 210 260H140V200ZM140 300H220C240 300 250 310 250 330C250 350 240 360 220 360H140V300Z" fill="#0070EF"/>

  <!-- G Letter -->
  <path d="M350 250C350 190 380 160 440 160C480 160 510 180 510 220V230H470V225C470 205 460 200 440 200C400 200 390 220 390 260V340C390 380 400 400 440 400C460 400 470 395 470 375V350H430V310H510V400H475L473 380C468 395 450 440 410 440C370 440 350 410 350 350V250Z" fill="#192BC2"/>
</svg>
