<svg width="153" height="26" viewBox="0 0 153 26" fill="none" xmlns="http://www.w3.org/2000/svg">
<path d="M15.156 24.88H0V0.76001H14.472C19.404 0.76001 22.068 2.84801 22.068 6.62801C22.068 9.61601 20.484 11.776 16.452 12.064V12.388C20.916 12.712 23.076 14.944 23.076 18.184C23.076 22.288 20.556 24.88 15.156 24.88ZM5.4 5.62001V10.336H13.86C15.84 10.336 16.668 9.65201 16.668 7.99601C16.668 6.34001 15.804 5.62001 13.788 5.62001H5.4ZM5.4 14.8V20.02H14.508C16.704 20.02 17.604 19.336 17.604 17.392C17.604 15.484 16.704 14.8 14.508 14.8H5.4Z" fill="#0070EF"/>
<path d="M30.4689 24.88H25.0689V0.76001H30.4689V24.88Z" fill="#0070EF"/>
<path d="M40.7475 25.24C35.6715 25.24 33.2595 22.108 33.2595 18.076V6.84401H38.6595V16.276C38.6595 19.192 39.8835 20.416 43.3035 20.416C46.8315 20.416 48.0915 19.048 48.0915 15.988V6.84401H53.4915V24.88H48.4515V19.372H48.1635C47.6955 22.396 45.4995 25.24 40.7475 25.24Z" fill="#0070EF"/>
<path d="M65.8285 25.24C59.8165 25.24 55.7125 22.288 55.7125 15.88C55.7125 10.12 59.7805 6.48401 65.7205 6.48401C71.6245 6.48401 75.5485 9.58001 75.5485 15.232C75.5485 15.88 75.4765 16.348 75.4045 16.96H60.7165C60.8605 19.732 62.1565 20.92 65.6485 20.92C68.8525 20.92 69.9685 20.092 69.9685 18.544V18.184H75.3685V18.58C75.3685 22.504 71.5525 25.24 65.8285 25.24ZM65.6125 10.696C62.4085 10.696 61.0405 11.776 60.7885 14.116H70.3645C70.2205 11.74 68.7805 10.696 65.6125 10.696Z" fill="#0070EF"/>
<path d="M90.5465 24.88H86.0825C81.8705 24.88 79.3145 22.9 79.3145 18.364V11.308V6.84401V0.76001H84.7145V6.84401V11.308V17.752C84.7145 19.552 85.3985 20.02 87.3065 20.02H90.5465V24.88Z" fill="#192BC2"/>
<path d="M97.9689 24.88H92.5689V6.84401H97.9689V24.88Z" fill="#192BC2"/>
<path d="M108.859 25.24C103.243 25.24 100.147 21.568 100.147 15.88C100.147 10.12 103.208 6.48401 108.572 6.48401C112.856 6.48401 115.051 8.60801 115.663 11.632H115.988V0.76001H121.388V24.88H116.348V19.876H116.06C115.376 23.44 112.999 25.24 108.859 25.24ZM105.619 15.88C105.619 19.156 107.24 20.308 110.696 20.308C114.116 20.308 115.988 19.12 115.988 15.988V15.7C115.988 12.568 114.152 11.416 110.696 11.416C107.24 11.416 105.619 12.568 105.619 15.88Z" fill="#192BC2"/>
<path d="M133.821 25.24C127.809 25.24 123.705 22.288 123.705 15.88C123.705 10.12 127.773 6.48401 133.713 6.48401C139.617 6.48401 143.541 9.58001 143.541 15.232C143.541 15.88 143.469 16.348 143.397 16.96H128.709C128.853 19.732 130.149 20.92 133.641 20.92C136.845 20.92 137.961 20.092 137.961 18.544V18.184H143.361V18.58C143.361 22.504 139.545 25.24 133.821 25.24ZM133.605 10.696C130.401 10.696 129.033 11.776 128.781 14.116H138.357C138.213 11.74 136.773 10.696 133.605 10.696Z" fill="#192BC2"/>
<path d="M152.419 24.88H145.471V18.58H152.419V24.88Z" fill="#192BC2"/>
<path d="M76.0845 9.67217C88.746 10.2928 85.7847 1.77926 98.1935 3.33251" stroke="#FF6700" stroke-width="5"/>
</svg>
